{"title":"Frozen 2013 (Zaledjeno.Kraljevstvo.SR.Sinhro)","uid":10999841,"size":737317526,"categoryP":"video","categoryS":"movies","magnet":"?xt=urn:btih:9b15a0ec48edc9df03e5c19400a8c4344db09e29&amp;dn=Frozen+2013+%28Zaledjeno.Kraljevstvo.SR.Sinhro%29&amp;tr=udp%3A%2F%2Ftracker.openbittorrent.com%3A80&amp;tr=udp%3A%2F%2Fopen.demonii.com%3A1337&amp;tr=udp%3A%2F%2Ftracker.coppersurfer.tk%3A6969&amp;tr=udp%3A%2F%2Fexodus.desync.com%3A6969","seeders":21,"leechers":0,"uploader":"stzar","files":1,"time":1410123421,"description":"Format                         : AVI\nFormat/Info                    : Audio Video Interleave\nFile size                      : 703 MiB\nDuration                       : 1h 42mn\nOverall bit rate               : 962 Kbps\nMovie name                     : Zaledjeno.Kraljevstvo.2013.SR.Sinhro.BRRip.XviD-daredule\nLaw rating                     : Unrated\nWriting application            : VirtualDub build 35390/releaseAVI-Mux GUI 1.17.8.3, Feb 16 201019:42:50\nCopyright                      : daredule AKA tttrojannnn\nComment                        : Ripped by daredule\n\nVideo\nID                             : 0\nFormat                         : MPEG-4 Visual\nFormat profile                 : Advanced Simple@L5\nFormat settings, Matrix        : Default (H.263)\nCodec ID                       : XVID\nCodec ID/Hint                  : XviD\nDuration                       : 1h 42mn\nBit rate                       : 824 Kbps\nWidth                          : 720 pixels\nHeight                         : 320 pixels\nDisplay aspect ratio           : 2.25:1\nFrame rate                     : 23.976 fps\nColor space                    : YUV\nChroma subsampling             : 4:2:0\nBit depth                      : 8 bits\nBits/(Pixel*Frame)             : 0.149\nStream size                    : 603 MiB (86%)\nWriting library                : XviD 1.2.1 (UTC 2008-12-04)\n\nAudio\nID                             : 1\nFormat                         : MPEG Audio\nCodec ID/Hint                  : MP3\nDuration                       : 1h 42mn\nBit rate mode                  : Constant\nBit rate                       : 128 Kbps\nChannel(s)                     : 2 channels\nSampling rate                  : 48.0 KHz\nCompression mode               : Lossy\nStream size                    : 93.6 MiB (13%)\nLanguage                       : Serbian\n\n","torrent":{"xt":"urn:btih:9b15a0ec48edc9df03e5c19400a8c4344db09e29","amp;dn":"Frozen+2013+%28Zaledjeno.Kraljevstvo.SR.Sinhro%29","amp;tr":["udp%3A%2F%2Ftracker.openbittorrent.com%3A80","udp%3A%2F%2Fopen.demonii.com%3A1337","udp%3A%2F%2Ftracker.coppersurfer.tk%3A6969","udp%3A%2F%2Fexodus.desync.com%3A6969"],"infoHash":"9b15a0ec48edc9df03e5c19400a8c4344db09e29","infoHashBuffer":{"type":"Buffer","data":[155,21,160,236,72,237,201,223,3,229,193,148,0,168,196,52,77,176,158,41]},"announce":[],"urlList":[]}}